<?xml version="1.0" encoding="utf-8"?>
<!-- Generator: Adobe Illustrator 17.0.0, SVG Export Plug-In . SVG Version: 6.00 Build 0)  -->
<!DOCTYPE svg PUBLIC "-//W3C//DTD SVG 1.1//EN" "http://www.w3.org/Graphics/SVG/1.1/DTD/svg11.dtd">
<svg version="1.1" id="Layer_1" xmlns="http://www.w3.org/2000/svg" xmlns:xlink="http://www.w3.org/1999/xlink" x="0px" y="0px"
	 width="515.835px" height="80.686px" viewBox="0 0 515.835 80.686" enable-background="new 0 0 515.835 80.686"
	 xml:space="preserve">
<g>
	
		<linearGradient id="SVGID_1_" gradientUnits="userSpaceOnUse" x1="-53.5184" y1="-1045.6235" x2="75.0643" y2="-1045.6235" gradientTransform="matrix(4.861 0 0 -4.861 217.9937 -5045.3652)">
		<stop  offset="0" style="stop-color:#115BC4"/>
		<stop  offset="1" style="stop-color:#05BDFD"/>
	</linearGradient>
	<path fill="url(#SVGID_1_)" d="M79.458,25.56l-23.463-3.253L45.568,2.324C45.046,0.93,43.482,0,41.397,0
		c-1.564,0-3.129,0.929-4.171,2.324L26.797,22.307L3.855,25.56c-1.564,0-3.129,1.394-3.65,2.789c-0.522,1.394,0,3.253,1.042,4.183
		l17.205,15.335l-4.17,21.842c-0.522,1.394,0.522,3.253,1.564,4.183c1.564,0.929,3.129,0.929,4.693,0.465l20.856-10.224
		l20.856,10.224c0.522,0.465,1.564,0.465,2.086,0.465c1.042,0,2.086-0.465,2.606-0.929c1.564-0.929,2.086-2.323,1.564-4.183
		l-4.171-21.842l17.205-15.336c1.042-0.929,1.564-2.789,1.042-4.183C82.587,26.489,81.022,25.56,79.458,25.56z"/>
</g>
<path fill="#FFFFFF" stroke="#000000" stroke-miterlimit="10" d="M122.011,144.929L122.011,144.929L122.011,144.929z"/>
<g>
	
		<linearGradient id="SVGID_2_" gradientUnits="userSpaceOnUse" x1="62.7322" y1="851.2557" x2="526.4855" y2="826.1556" gradientTransform="matrix(1 0 0 1 33.6 -811.697)">
		<stop  offset="0" style="stop-color:#006DFF"/>
		<stop  offset="1" style="stop-color:#000000"/>
	</linearGradient>
	<path fill="url(#SVGID_2_)" d="M155.328,63.456c-3.458,1.144-11.239,2.368-21.366,2.368c-28.777,0-43.598-11.84-43.598-27.519
		c0-18.781,20.256-29.233,45.45-29.233c9.757,0,17.167,1.306,20.502,2.449l-3.828,9.881c-3.83-1.061-9.14-2.041-15.808-2.041
		c-14.945,0-26.555,5.961-26.555,18.209c0,11.024,9.881,17.964,26.678,17.964c5.681,0,11.98-0.816,15.685-1.796L155.328,63.456z"/>
	
		<linearGradient id="SVGID_3_" gradientUnits="userSpaceOnUse" x1="62.8827" y1="854.0358" x2="526.6362" y2="828.9358" gradientTransform="matrix(1 0 0 1 33.6 -811.697)">
		<stop  offset="0" style="stop-color:#006DFF"/>
		<stop  offset="1" style="stop-color:#000000"/>
	</linearGradient>
	<path fill="url(#SVGID_3_)" d="M188.426,65.008L161.749,9.971h20.625l10.128,23.273c2.84,6.532,5.435,12.82,7.411,19.68h0.371
		c2.1-6.614,4.694-13.148,7.534-19.435l10.621-23.518h20.008l-28.036,55.037H188.426z"/>
	
		<linearGradient id="SVGID_4_" gradientUnits="userSpaceOnUse" x1="63.0796" y1="857.6748" x2="526.8331" y2="832.5748" gradientTransform="matrix(1 0 0 1 33.6 -811.697)">
		<stop  offset="0" style="stop-color:#006DFF"/>
		<stop  offset="1" style="stop-color:#000000"/>
	</linearGradient>
	<path fill="url(#SVGID_4_)" d="M256.352,15.605h-15.191V9.971h39.892v5.634h-15.191v49.403h-9.511L256.352,15.605L256.352,15.605z"
		/>
	
		<linearGradient id="SVGID_5_" gradientUnits="userSpaceOnUse" x1="63.1942" y1="859.7908" x2="526.9475" y2="834.6907" gradientTransform="matrix(1 0 0 1 33.6 -811.697)">
		<stop  offset="0" style="stop-color:#006DFF"/>
		<stop  offset="1" style="stop-color:#000000"/>
	</linearGradient>
	<path fill="url(#SVGID_5_)" d="M287.971,8.5h9.509v21.231h0.247c1.235-1.388,3.087-2.613,4.94-3.429
		c2.223-0.898,4.569-1.47,8.028-1.47c7.534,0,13.956,4.002,13.956,13.964v26.212h-9.511V39.53c0-4.818-1.605-9.39-8.027-9.39
		c-4.446,0-7.781,2.123-9.263,6.287c-0.246,0.898-0.371,2.041-0.371,3.022v25.559h-9.509V8.5H287.971z"/>
	
		<linearGradient id="SVGID_6_" gradientUnits="userSpaceOnUse" x1="63.7951" y1="870.8948" x2="527.5483" y2="845.7949" gradientTransform="matrix(1 0 0 1 33.6 -811.697)">
		<stop  offset="0" style="stop-color:#006DFF"/>
		<stop  offset="1" style="stop-color:#000000"/>
	</linearGradient>
	<path fill="url(#SVGID_6_)" d="M344.66,45.818c0.123,12.085,7.287,14.698,14.203,14.698c4.076,0,7.534-0.654,9.88-1.551
		l1.482,4.654c-3.335,1.225-8.399,1.878-13.091,1.878c-14.326,0-21.738-7.757-21.738-19.842c0-12.82,8.152-20.823,20.133-20.823
		c12.227,0,17.044,8.492,17.044,17.474c0,1.47,0,2.532-0.124,3.512h-27.788L344.66,45.818L344.66,45.818z M363.434,41.164
		c0.246-7.921-4.323-11.432-8.893-11.432c-6.175,0-9.386,6.043-9.757,11.432H363.434z"/>
	
		<linearGradient id="SVGID_7_" gradientUnits="userSpaceOnUse" x1="64.3569" y1="881.272" x2="528.1101" y2="856.172" gradientTransform="matrix(1 0 0 1 33.6 -811.697)">
		<stop  offset="0" style="stop-color:#006DFF"/>
		<stop  offset="1" style="stop-color:#000000"/>
	</linearGradient>
	<path fill="url(#SVGID_7_)" d="M409.378,60.925h-0.371c-1.977,2.694-6.053,4.736-11.487,4.736c-9.632,0-17.29-6.941-17.29-19.925
		c0-13.963,8.893-20.905,18.774-20.905c3.827,0,8.275,1.144,11.115,5.226l0.246,0.082l0.495-4.655h8.523
		c-0.249,2.777-0.495,6.288-0.495,12.331v42.871h-9.509L409.378,60.925L409.378,60.925z M409.378,40.265
		c0-0.816,0-1.878-0.249-2.613c-0.741-4.164-4.445-7.431-8.645-7.431c-7.78,0-10.745,6.859-10.745,15.188
		c0,8.33,3.21,15.025,10.498,15.025c2.963,0,6.669-1.143,8.645-6.614c0.495-0.98,0.495-2.286,0.495-3.348V40.265H409.378z"/>
	
		<linearGradient id="SVGID_8_" gradientUnits="userSpaceOnUse" x1="64.0725" y1="876.0204" x2="527.8259" y2="850.9204" gradientTransform="matrix(1 0 0 1 33.6 -811.697)">
		<stop  offset="0" style="stop-color:#006DFF"/>
		<stop  offset="1" style="stop-color:#000000"/>
	</linearGradient>
	<path fill="url(#SVGID_8_)" d="M467.917,54.229c0,4.409,0.37,7.84,0.495,10.779h-8.275l-0.618-4.164h-0.246
		c-1.854,1.96-6.423,4.818-12.844,4.818c-10.498,0-14.574-5.389-14.574-15.188V25.486h9.509v24.089
		c0,6.206,1.481,10.779,8.027,10.779c5.558,0,8.028-3.429,8.523-5.226c0.371-1.061,0.495-2.286,0.495-3.593V25.486h9.509
		L467.917,54.229L467.917,54.229L467.917,54.229z"/>
	
		<linearGradient id="SVGID_9_" gradientUnits="userSpaceOnUse" x1="64.2136" y1="878.6261" x2="527.967" y2="853.5261" gradientTransform="matrix(1 0 0 1 33.6 -811.697)">
		<stop  offset="0" style="stop-color:#006DFF"/>
		<stop  offset="1" style="stop-color:#000000"/>
	</linearGradient>
	<path fill="url(#SVGID_9_)" d="M487.924,45.818c0.124,12.085,7.286,14.698,14.203,14.698c4.076,0,7.534-0.654,9.88-1.551
		l1.481,4.654c-3.335,1.225-8.397,1.878-13.09,1.878c-14.327,0-21.738-7.757-21.738-19.842c0-12.82,8.153-20.823,20.131-20.823
		c12.226,0,17.044,8.492,17.044,17.474c0,1.47,0,2.532-0.124,3.512L487.924,45.818L487.924,45.818L487.924,45.818z M506.698,41.164
		c0.246-7.921-4.323-11.432-8.893-11.432c-6.175,0-9.385,6.043-9.756,11.432H506.698z"/>
</g>
</svg>
