<?xml version="1.0" encoding="utf-8"?>
<!-- Generator: Adobe Illustrator 17.0.0, SVG Export Plug-In . SVG Version: 6.00 Build 0)  -->
<!DOCTYPE svg PUBLIC "-//W3C//DTD SVG 1.1//EN" "http://www.w3.org/Graphics/SVG/1.1/DTD/svg11.dtd">
<svg version="1.1" id="Layer_1" xmlns="http://www.w3.org/2000/svg" xmlns:xlink="http://www.w3.org/1999/xlink" x="0px" y="0px"
	 width="612px" height="78.263px" viewBox="0 0 612 78.263" enable-background="new 0 0 612 78.263" xml:space="preserve">
<g>
	
		<linearGradient id="SVGID_1_" gradientUnits="userSpaceOnUse" x1="0.8102" y1="-890.3845" x2="115.4145" y2="-890.3845" gradientTransform="matrix(4.861 0 0 -4.861 19.4082 -4289.7485)">
		<stop  offset="0" style="stop-color:#115BC4"/>
		<stop  offset="1" style="stop-color:#05BDFD"/>
	</linearGradient>
	<path fill="url(#SVGID_1_)" d="M131.743,26.56l-20.912-3.253l-9.294-19.983C101.072,1.93,99.678,1,97.819,1
		c-1.394,0-2.789,0.929-3.718,2.324l-9.294,19.983L64.359,26.56c-1.394,0-2.789,1.394-3.253,2.789c-0.465,1.394,0,3.253,0.929,4.183
		L77.37,48.867l-3.718,21.842c-0.465,1.394,0.465,3.253,1.394,4.183c1.394,0.929,2.789,0.929,4.183,0.465l18.589-10.224
		l18.589,10.224c0.465,0.465,1.394,0.465,1.859,0.465c0.929,0,1.859-0.465,2.323-0.929c1.394-0.929,1.859-2.323,1.394-4.183
		l-3.718-21.842L133.6,33.532c0.929-0.929,1.394-2.789,0.929-4.183C134.532,27.489,133.137,26.56,131.743,26.56z"/>
</g>
<path fill="#FFFFFF" stroke="#000000" stroke-miterlimit="10" d="M122.011,144.929L122.011,144.929L122.011,144.929z"/>
<g>
	
		<linearGradient id="SVGID_2_" gradientUnits="userSpaceOnUse" x1="165.9709" y1="90.464" x2="553.9708" y2="69.464" gradientTransform="matrix(1 0 0 1 16.8 -48.98)">
		<stop  offset="0" style="stop-color:#006DFF"/>
		<stop  offset="1" style="stop-color:#000000"/>
	</linearGradient>
	<path fill="url(#SVGID_2_)" d="M232.13,61.478c-2.893,0.957-9.403,1.981-17.876,1.981c-24.076,0-36.476-9.906-36.476-23.024
		c0-15.713,16.947-24.458,38.026-24.458c8.163,0,14.363,1.093,17.153,2.049l-3.203,8.267c-3.204-0.888-7.647-1.708-13.226-1.708
		c-12.504,0-22.217,4.987-22.217,15.235c0,9.223,8.267,15.03,22.32,15.03c4.753,0,10.023-0.683,13.123-1.503L232.13,61.478z"/>
	
		<linearGradient id="SVGID_3_" gradientUnits="userSpaceOnUse" x1="166.0968" y1="92.7897" x2="554.0969" y2="71.7897" gradientTransform="matrix(1 0 0 1 16.8 -48.98)">
		<stop  offset="0" style="stop-color:#006DFF"/>
		<stop  offset="1" style="stop-color:#000000"/>
	</linearGradient>
	<path fill="url(#SVGID_3_)" d="M259.821,62.776l-22.319-46.047h17.256l8.474,19.471c2.376,5.465,4.547,10.726,6.2,16.465h0.31
		c1.757-5.534,3.927-11,6.303-16.26l8.886-19.676h16.74l-23.456,46.047H259.821z"/>
	
		<linearGradient id="SVGID_4_" gradientUnits="userSpaceOnUse" x1="166.2616" y1="95.8343" x2="554.2616" y2="74.8343" gradientTransform="matrix(1 0 0 1 16.8 -48.98)">
		<stop  offset="0" style="stop-color:#006DFF"/>
		<stop  offset="1" style="stop-color:#000000"/>
	</linearGradient>
	<path fill="url(#SVGID_4_)" d="M316.652,21.443h-12.71v-4.714h33.376v4.714h-12.71v41.333h-7.957L316.652,21.443L316.652,21.443z"
		/>
	
		<linearGradient id="SVGID_5_" gradientUnits="userSpaceOnUse" x1="166.3574" y1="97.605" x2="554.3574" y2="76.605" gradientTransform="matrix(1 0 0 1 16.8 -48.98)">
		<stop  offset="0" style="stop-color:#006DFF"/>
		<stop  offset="1" style="stop-color:#000000"/>
	</linearGradient>
	<path fill="url(#SVGID_5_)" d="M343.106,15.499h7.956v17.763h0.207c1.033-1.161,2.583-2.186,4.133-2.869
		c1.86-0.751,3.823-1.23,6.717-1.23c6.303,0,11.676,3.348,11.676,11.683v21.93h-7.957V41.46c0-4.031-1.343-7.856-6.716-7.856
		c-3.72,0-6.51,1.776-7.75,5.26c-0.206,0.751-0.31,1.708-0.31,2.528v21.384h-7.956V15.499z"/>
	
		<linearGradient id="SVGID_6_" gradientUnits="userSpaceOnUse" x1="166.8602" y1="106.8946" x2="554.86" y2="85.8946" gradientTransform="matrix(1 0 0 1 16.8 -48.98)">
		<stop  offset="0" style="stop-color:#006DFF"/>
		<stop  offset="1" style="stop-color:#000000"/>
	</linearGradient>
	<path fill="url(#SVGID_6_)" d="M390.535,46.721c0.103,10.111,6.097,12.297,11.883,12.297c3.41,0,6.303-0.547,8.266-1.298
		l1.24,3.894c-2.79,1.025-7.027,1.571-10.953,1.571c-11.986,0-18.187-6.49-18.187-16.601c0-10.726,6.82-17.422,16.844-17.422
		c10.23,0,14.26,7.105,14.26,14.62c0,1.23,0,2.118-0.104,2.938h-23.249L390.535,46.721L390.535,46.721z M406.242,42.827
		c0.206-6.627-3.617-9.565-7.44-9.565c-5.166,0-7.853,5.056-8.163,9.565H406.242z"/>
	
		<linearGradient id="SVGID_7_" gradientUnits="userSpaceOnUse" x1="167.3302" y1="115.5771" x2="555.3301" y2="94.5771" gradientTransform="matrix(1 0 0 1 16.8 -48.98)">
		<stop  offset="0" style="stop-color:#006DFF"/>
		<stop  offset="1" style="stop-color:#000000"/>
	</linearGradient>
	<path fill="url(#SVGID_7_)" d="M444.681,59.36h-0.31c-1.654,2.254-5.064,3.962-9.611,3.962c-8.059,0-14.466-5.807-14.466-16.67
		c0-11.682,7.44-17.49,15.707-17.49c3.202,0,6.923,0.957,9.299,4.372l0.206,0.069l0.414-3.895h7.131
		c-0.208,2.323-0.414,5.261-0.414,10.317v35.868h-7.956L444.681,59.36L444.681,59.36z M444.681,42.075c0-0.683,0-1.571-0.208-2.186
		c-0.62-3.484-3.719-6.217-7.233-6.217c-6.509,0-8.99,5.739-8.99,12.707c0,6.969,2.686,12.571,8.783,12.571
		c2.479,0,5.58-0.956,7.233-5.534c0.414-0.82,0.414-1.913,0.414-2.801v-8.54H444.681z"/>
	
		<linearGradient id="SVGID_8_" gradientUnits="userSpaceOnUse" x1="167.0923" y1="111.1834" x2="555.0923" y2="90.1834" gradientTransform="matrix(1 0 0 1 16.8 -48.98)">
		<stop  offset="0" style="stop-color:#006DFF"/>
		<stop  offset="1" style="stop-color:#000000"/>
	</linearGradient>
	<path fill="url(#SVGID_8_)" d="M493.658,53.758c0,3.689,0.31,6.559,0.414,9.018h-6.923l-0.517-3.484h-0.206
		c-1.551,1.64-5.374,4.031-10.746,4.031c-8.783,0-12.193-4.509-12.193-12.707V29.71h7.956v20.154c0,5.192,1.239,9.018,6.716,9.018
		c4.65,0,6.717-2.869,7.131-4.372c0.31-0.888,0.414-1.913,0.414-3.006V29.71h7.956v24.048L493.658,53.758L493.658,53.758z"/>
	
		<linearGradient id="SVGID_9_" gradientUnits="userSpaceOnUse" x1="167.2103" y1="113.363" x2="555.2103" y2="92.363" gradientTransform="matrix(1 0 0 1 16.8 -48.98)">
		<stop  offset="0" style="stop-color:#006DFF"/>
		<stop  offset="1" style="stop-color:#000000"/>
	</linearGradient>
	<path fill="url(#SVGID_9_)" d="M510.397,46.721c0.104,10.111,6.096,12.297,11.883,12.297c3.41,0,6.303-0.547,8.266-1.298
		l1.239,3.894c-2.79,1.025-7.025,1.571-10.952,1.571c-11.987,0-18.187-6.49-18.187-16.601c0-10.726,6.821-17.422,16.843-17.422
		c10.229,0,14.26,7.105,14.26,14.62c0,1.23,0,2.118-0.104,2.938h-23.248L510.397,46.721L510.397,46.721z M526.104,42.827
		c0.206-6.627-3.617-9.565-7.44-9.565c-5.166,0-7.852,5.056-8.162,9.565H526.104z"/>
</g>
</svg>
