<?xml version="1.0" encoding="utf-8"?>
<!-- Generator: Adobe Illustrator 17.0.0, SVG Export Plug-In . SVG Version: 6.00 Build 0)  -->
<!DOCTYPE svg PUBLIC "-//W3C//DTD SVG 1.1//EN" "http://www.w3.org/Graphics/SVG/1.1/DTD/svg11.dtd">
<svg version="1.1" id="Layer_1" xmlns="http://www.w3.org/2000/svg" xmlns:xlink="http://www.w3.org/1999/xlink" x="0px" y="0px"
	 width="612px" height="792px" viewBox="0 0 612 792" enable-background="new 0 0 612 792" xml:space="preserve">
<g>
	
		<linearGradient id="SVGID_1_" gradientUnits="userSpaceOnUse" x1="3.1164" y1="-523.7158" x2="122.9926" y2="-523.7158" gradientTransform="matrix(4.861 0 0 -4.861 6.4694 -2149.1619)">
		<stop  offset="0" style="stop-color:#115BC4"/>
		<stop  offset="1" style="stop-color:#05BDFD"/>
	</linearGradient>
	<path fill="url(#SVGID_1_)" d="M135.001,384.226l-21.874-3.403l-9.722-20.902c-0.486-1.458-1.944-2.431-3.889-2.431
		c-1.458,0-2.917,0.972-3.889,2.431l-9.722,20.902l-21.388,3.403c-1.458,0-2.917,1.458-3.403,2.917
		c-0.486,1.458,0,3.403,0.972,4.375l16.041,16.041l-3.889,22.847c-0.486,1.458,0.486,3.403,1.458,4.375
		c1.458,0.972,2.917,0.972,4.375,0.486l19.444-10.694l19.444,10.694c0.486,0.486,1.458,0.486,1.944,0.486
		c0.972,0,1.944-0.486,2.43-0.972c1.458-0.972,1.944-2.43,1.458-4.375l-3.889-22.847l16.041-16.041
		c0.972-0.972,1.458-2.917,0.972-4.375C137.918,385.198,136.459,384.226,135.001,384.226z"/>
</g>
<polygon fill="#FFFFFF" stroke="#000000" stroke-miterlimit="10" points="122.011,144.929 122.011,144.929 122.011,144.929 "/>
<g>
	<linearGradient id="SVGID_2_" gradientUnits="userSpaceOnUse" x1="182.7709" y1="398.9742" x2="570.7709" y2="377.9742">
		<stop  offset="0" style="stop-color:#006DFF"/>
		<stop  offset="1" style="stop-color:#000000"/>
	</linearGradient>
	<path fill="url(#SVGID_2_)" d="M232.13,418.968c-2.893,0.957-9.403,1.981-17.876,1.981c-24.076,0-36.476-9.906-36.476-23.024
		c0-15.713,16.947-24.458,38.026-24.458c8.163,0,14.363,1.093,17.153,2.049l-3.203,8.267c-3.204-0.888-7.647-1.708-13.226-1.708
		c-12.504,0-22.217,4.987-22.217,15.235c0,9.223,8.267,15.03,22.32,15.03c4.753,0,10.023-0.683,13.123-1.503L232.13,418.968z"/>
	<linearGradient id="SVGID_3_" gradientUnits="userSpaceOnUse" x1="182.8968" y1="401.2995" x2="570.8968" y2="380.2995">
		<stop  offset="0" style="stop-color:#006DFF"/>
		<stop  offset="1" style="stop-color:#000000"/>
	</linearGradient>
	<path fill="url(#SVGID_3_)" d="M259.821,420.266l-22.319-46.047h17.256l8.474,19.471c2.376,5.465,4.547,10.726,6.2,16.465h0.31
		c1.757-5.534,3.927-11,6.303-16.26l8.886-19.676h16.74l-23.456,46.047H259.821z"/>
	<linearGradient id="SVGID_4_" gradientUnits="userSpaceOnUse" x1="183.0616" y1="404.3441" x2="571.0616" y2="383.3441">
		<stop  offset="0" style="stop-color:#006DFF"/>
		<stop  offset="1" style="stop-color:#000000"/>
	</linearGradient>
	<path fill="url(#SVGID_4_)" d="M316.652,378.933h-12.71v-4.714h33.376v4.714h-12.71v41.333h-7.957V378.933z"/>
	<linearGradient id="SVGID_5_" gradientUnits="userSpaceOnUse" x1="183.1574" y1="406.115" x2="571.1574" y2="385.115">
		<stop  offset="0" style="stop-color:#006DFF"/>
		<stop  offset="1" style="stop-color:#000000"/>
	</linearGradient>
	<path fill="url(#SVGID_5_)" d="M343.106,372.989h7.956v17.763h0.207c1.033-1.161,2.583-2.186,4.133-2.869
		c1.86-0.751,3.823-1.23,6.717-1.23c6.303,0,11.676,3.348,11.676,11.683v21.93h-7.957V398.95c0-4.031-1.343-7.856-6.716-7.856
		c-3.72,0-6.51,1.776-7.75,5.26c-0.206,0.751-0.31,1.708-0.31,2.528v21.384h-7.956V372.989z"/>
	<linearGradient id="SVGID_6_" gradientUnits="userSpaceOnUse" x1="183.6602" y1="415.4053" x2="571.6602" y2="394.4053">
		<stop  offset="0" style="stop-color:#006DFF"/>
		<stop  offset="1" style="stop-color:#000000"/>
	</linearGradient>
	<path fill="url(#SVGID_6_)" d="M390.535,404.211c0.103,10.111,6.097,12.297,11.883,12.297c3.41,0,6.303-0.547,8.266-1.298
		l1.24,3.894c-2.79,1.025-7.027,1.571-10.953,1.571c-11.986,0-18.187-6.49-18.187-16.601c0-10.726,6.82-17.422,16.844-17.422
		c10.23,0,14.26,7.105,14.26,14.62c0,1.23,0,2.118-0.104,2.938H390.535z M406.242,400.317c0.206-6.627-3.617-9.565-7.44-9.565
		c-5.166,0-7.853,5.056-8.163,9.565H406.242z"/>
	<linearGradient id="SVGID_7_" gradientUnits="userSpaceOnUse" x1="184.1302" y1="424.0876" x2="572.1301" y2="403.0876">
		<stop  offset="0" style="stop-color:#006DFF"/>
		<stop  offset="1" style="stop-color:#000000"/>
	</linearGradient>
	<path fill="url(#SVGID_7_)" d="M444.681,416.85h-0.31c-1.654,2.254-5.064,3.962-9.611,3.962c-8.059,0-14.466-5.807-14.466-16.67
		c0-11.682,7.44-17.49,15.707-17.49c3.202,0,6.923,0.957,9.299,4.372l0.206,0.069l0.414-3.895h7.131
		c-0.208,2.323-0.414,5.261-0.414,10.317v35.868h-7.956V416.85z M444.681,399.565c0-0.683,0-1.571-0.208-2.186
		c-0.62-3.484-3.719-6.217-7.233-6.217c-6.509,0-8.99,5.739-8.99,12.707c0,6.969,2.686,12.571,8.783,12.571
		c2.479,0,5.58-0.956,7.233-5.534c0.414-0.82,0.414-1.913,0.414-2.801V399.565z"/>
	<linearGradient id="SVGID_8_" gradientUnits="userSpaceOnUse" x1="183.8923" y1="419.6929" x2="571.8923" y2="398.6929">
		<stop  offset="0" style="stop-color:#006DFF"/>
		<stop  offset="1" style="stop-color:#000000"/>
	</linearGradient>
	<path fill="url(#SVGID_8_)" d="M493.658,411.248c0,3.689,0.31,6.559,0.414,9.018h-6.923l-0.517-3.484h-0.206
		c-1.551,1.64-5.374,4.031-10.746,4.031c-8.783,0-12.193-4.509-12.193-12.707v-20.906h7.956v20.154c0,5.192,1.239,9.018,6.716,9.018
		c4.65,0,6.717-2.869,7.131-4.372c0.31-0.888,0.414-1.913,0.414-3.006v-21.794h7.956V411.248z"/>
	<linearGradient id="SVGID_9_" gradientUnits="userSpaceOnUse" x1="184.0103" y1="421.8737" x2="572.0103" y2="400.8737">
		<stop  offset="0" style="stop-color:#006DFF"/>
		<stop  offset="1" style="stop-color:#000000"/>
	</linearGradient>
	<path fill="url(#SVGID_9_)" d="M510.397,404.211c0.104,10.111,6.096,12.297,11.883,12.297c3.41,0,6.303-0.547,8.266-1.298
		l1.239,3.894c-2.79,1.025-7.025,1.571-10.952,1.571c-11.987,0-18.187-6.49-18.187-16.601c0-10.726,6.821-17.422,16.843-17.422
		c10.229,0,14.26,7.105,14.26,14.62c0,1.23,0,2.118-0.104,2.938H510.397z M526.104,400.317c0.206-6.627-3.617-9.565-7.44-9.565
		c-5.166,0-7.852,5.056-8.162,9.565H526.104z"/>
</g>
</svg>
